<svg id="Group_2099" data-name="Group 2099" xmlns="http://www.w3.org/2000/svg" width="129.253" height="36" viewBox="0 0 129.253 36">
  <path id="Path_5103" data-name="Path 5103" d="M314.037,36.95,297.105,5.6A8.56,8.56,0,0,0,289.585.95,8.415,8.415,0,0,0,281.967,5.7L265.578,36.95h10.3l13.527-26.866,6.715,12.982H285.553L282.685,28.8h16.486l4.21,8.146Z" transform="translate(-184.783 -0.95)" fill="#0a3161"/>
  <path id="Path_5104" data-name="Path 5104" d="M209.675,16.915c3.138,0,7.53,0,8.244-.09a5.911,5.911,0,0,0,3.317-1.248A3.792,3.792,0,0,0,222.4,12.8a3.328,3.328,0,0,0-1.076-2.6,4.8,4.8,0,0,0-3.047-1.247c-.715-.09-3.041-.09-6.894-.09h-4.57V32.144h7.433c2.959,0,4.746-.091,5.558-.179a5.706,5.706,0,0,0,2.953-1.435,4.005,4.005,0,0,0,1.072-2.96,4.351,4.351,0,0,0-.805-2.682,5.316,5.316,0,0,0-2.593-1.613,29.319,29.319,0,0,0-7.169-.534h-6.448ZM198.75,3.03H214.7a65.758,65.758,0,0,1,7.072.275,11.392,11.392,0,0,1,4.21,1.516,10.493,10.493,0,0,1,3.05,2.87,7.472,7.472,0,0,1,1.251,4.117,7.962,7.962,0,0,1-1.527,4.572,10.189,10.189,0,0,1-4.116,3.047,10.948,10.948,0,0,1,5.643,3.223,7.794,7.794,0,0,1,1.878,5.286,9.113,9.113,0,0,1-1.251,4.651,9.986,9.986,0,0,1-3.407,3.583,12.588,12.588,0,0,1-5.461,1.613c-1.342.178-4.57.267-9.765.267H198.75Z" transform="translate(-149.398 -2.051)" fill="#0a3161"/>
  <path id="Path_5105" data-name="Path 5105" d="M142.224,36.95,125.381,5.6a8.516,8.516,0,0,0-15.226.1L93.856,36.95h10.3l13.527-26.866L124.4,23.066H113.829L110.869,28.8h16.577l4.21,8.146Z" transform="translate(-93.856 -0.95)" fill="#0a3161"/>
</svg>
